<svg width="24" height="24" viewBox="0 0 24 24" fill="none" xmlns="http://www.w3.org/2000/svg">
<path d="M23.7742 5.22941C23.6933 5.14521 23.5951 5.07818 23.486 5.0326C23.3768 4.98703 23.2589 4.96389 23.14 4.96466H9.42786C9.20057 4.96466 8.98259 5.05183 8.82187 5.20698C8.66115 5.36213 8.57085 5.57257 8.57085 5.79199C8.57085 6.0114 8.66115 6.22184 8.82187 6.37699C8.98259 6.53214 9.20057 6.6193 9.42786 6.6193H22.2059L21.5117 14.4623C21.4387 14.8399 21.2228 15.1778 20.906 15.4103C20.5892 15.6427 20.1941 15.753 19.7977 15.7198H9.32502C8.92859 15.753 8.53352 15.6427 8.21671 15.4103C7.8999 15.1778 7.68399 14.8399 7.611 14.4623L6.85684 5.7258V5.65961C6.85684 5.65961 6.85684 5.60997 6.85684 5.59343L6.28264 3.47549C6.156 2.97944 5.90884 2.51962 5.56161 2.13407C5.21439 1.74852 4.77706 1.44831 4.28581 1.25827L1.17487 0.0586566C1.07021 0.0184579 0.958364 -0.00144586 0.84573 8.17125e-05C0.733095 0.00160928 0.621876 0.0245383 0.518421 0.0675596C0.414967 0.110581 0.321303 0.172852 0.242777 0.250817C0.164252 0.328783 0.102403 0.420916 0.0607615 0.521956C-0.0233368 0.726016 -0.0200193 0.953968 0.069984 1.15567C0.159987 1.35736 0.329304 1.51629 0.540686 1.59747L3.64306 2.79709C3.88279 2.88839 4.0965 3.03361 4.26642 3.22067C4.43635 3.40773 4.55758 3.63123 4.62005 3.8726L5.14282 5.92436L5.91413 14.6029C6.02454 15.3944 6.43736 16.1175 7.07158 16.6302C7.70581 17.143 8.51564 17.4084 9.34216 17.3745H9.42786V19.178C8.85605 19.3732 8.37412 19.7572 8.06725 20.2622C7.76037 20.7672 7.64831 21.3607 7.75087 21.9377C7.85343 22.5148 8.16401 23.0383 8.62771 23.4156C9.09141 23.793 9.67838 24 10.2849 24C10.8914 24 11.4783 23.793 11.942 23.4156C12.4057 23.0383 12.7163 22.5148 12.8189 21.9377C12.9214 21.3607 12.8094 20.7672 12.5025 20.2622C12.1956 19.7572 11.7137 19.3732 11.1419 19.178V17.3745H17.9979V19.178C17.4261 19.3732 16.9442 19.7572 16.6373 20.2622C16.3305 20.7672 16.2184 21.3607 16.321 21.9377C16.4235 22.5148 16.7341 23.0383 17.1978 23.4156C17.6615 23.793 18.2485 24 18.855 24C19.4614 24 20.0484 23.793 20.5121 23.4156C20.9758 23.0383 21.2864 22.5148 21.389 21.9377C21.4915 21.3607 21.3794 20.7672 21.0726 20.2622C20.7657 19.7572 20.2838 19.3732 19.712 19.178V17.3745H19.8148C20.6413 17.4084 21.4512 17.143 22.0854 16.6302C22.7196 16.1175 23.1324 15.3944 23.2428 14.6029L23.997 5.85817C24.0069 5.74419 23.9922 5.62947 23.9539 5.52124C23.9155 5.41302 23.8543 5.31365 23.7742 5.22941ZM10.2849 22.3384C10.1154 22.3384 9.94968 22.2899 9.80874 22.199C9.66781 22.1081 9.55796 21.9788 9.4931 21.8277C9.42823 21.6765 9.41126 21.5101 9.44433 21.3497C9.4774 21.1892 9.55902 21.0418 9.67887 20.9261C9.79873 20.8104 9.95143 20.7316 10.1177 20.6996C10.2839 20.6677 10.4562 20.6841 10.6128 20.7467C10.7694 20.8093 10.9033 20.9154 10.9974 21.0514C11.0916 21.1875 11.1419 21.3474 11.1419 21.5111C11.1419 21.7305 11.0516 21.9409 10.8909 22.0961C10.7301 22.2512 10.5122 22.3384 10.2849 22.3384ZM18.855 22.3384C18.6855 22.3384 18.5198 22.2899 18.3788 22.199C18.2379 22.1081 18.128 21.9788 18.0632 21.8277C17.9983 21.6765 17.9813 21.5101 18.0144 21.3497C18.0475 21.1892 18.1291 21.0418 18.249 20.9261C18.3688 20.8104 18.5215 20.7316 18.6878 20.6996C18.854 20.6677 19.0263 20.6841 19.1829 20.7467C19.3395 20.8093 19.4734 20.9154 19.5675 21.0514C19.6617 21.1875 19.712 21.3474 19.712 21.5111C19.712 21.7305 19.6217 21.9409 19.461 22.0961C19.3002 22.2512 19.0822 22.3384 18.855 22.3384Z" fill="white"/>
</svg>
