<svg width="30" height="30" viewBox="0 0 30 30" fill="none" xmlns="http://www.w3.org/2000/svg">
<path fill-rule="evenodd" clip-rule="evenodd" d="M8.84334 5.69804C6.72702 6.02523 5.25033 7.083 4.40766 8.87529C3.77694 10.2168 3.57261 12.1811 3.91409 13.6206C4.24527 15.017 5.03915 16.5537 6.26349 18.1688C7.77462 20.1618 10.1082 22.4727 12.733 24.5753C13.1779 24.9315 14.7644 26.13 14.9441 26.2457C15.0072 26.2862 15.3287 26.0564 16.4939 25.1382C19.7096 22.6041 22.4702 19.8359 24.1583 17.4525C25.7489 15.2069 26.406 13.3271 26.2191 11.5575C25.8593 8.15177 23.2292 5.62869 20.0349 5.625C18.3939 5.6231 16.8969 6.27593 15.7022 7.51439C15.5207 7.70249 15.2931 7.96292 15.1962 8.09318C15.0995 8.22344 15.0105 8.33001 14.9983 8.33001C14.9862 8.33001 14.8972 8.22344 14.8004 8.09318C14.0383 7.0674 12.793 6.19511 11.5875 5.84244C10.8548 5.62809 9.69167 5.56688 8.84334 5.69804Z" stroke="#E56A54" stroke-width="1.2" stroke-linecap="round" stroke-linejoin="round"/>
</svg>
