<svg width="16" height="16" viewBox="0 0 16 16" fill="none" xmlns="http://www.w3.org/2000/svg">
<path d="M15.1172 12.5976L12.7435 10.2239C12.0772 9.55754 10.9969 9.55754 10.3305 10.2239L9.95915 10.5952C9.66029 10.8934 9.45262 11.2706 9.36049 11.6825C8.5559 11.6976 7.64599 11.5608 6.86774 11.0559C6.38972 10.7005 5.93832 10.3107 5.51715 9.88957C5.16136 9.53399 4.82775 9.15688 4.51821 8.76038C3.91168 7.94551 3.75162 6.9566 3.7678 6.08988C4.17979 5.99777 4.55697 5.7901 4.85512 5.49123L5.22649 5.11985C5.8928 4.45354 5.8928 3.37323 5.22649 2.70688L2.85277 0.333164C2.40855 -0.111055 1.68833 -0.111055 1.24415 0.333164L0.836616 0.740789C0.314179 1.26323 0.046741 1.94366 0.0328348 2.62832C-0.100946 4.07285 0.17571 5.66304 0.832929 7.22701C1.26687 8.25963 1.86265 9.26791 2.58824 10.2051C2.5974 10.2174 2.60608 10.2298 2.61537 10.242L2.61643 10.2412C2.98689 10.7164 3.3863 11.1683 3.8124 11.5944C4.25275 12.0351 4.72064 12.4475 5.21324 12.8289L5.20849 12.8352C5.29056 12.8974 5.37427 12.9574 5.45952 13.0152C7.53018 14.5468 9.87059 15.4072 12.0485 15.4071C12.1757 15.4071 12.3025 15.4034 12.4286 15.3975C13.2399 15.4973 14.0869 15.2365 14.7096 14.6138L15.1172 14.2062C15.5614 13.762 15.5614 13.0418 15.1172 12.5976Z" fill="#132028"/>
</svg>
